<svg width="24" height="20" viewBox="0 0 24 20" fill="none" xmlns="http://www.w3.org/2000/svg">
<path d="M1.2 15.6C0.537326 15.6 0 15.0627 0 14.4C0 13.7846 0.463269 13.2774 1.06005 13.208L1.2 13.2H14.4C14.4 11.2118 16.0118 9.59999 18 9.59999H20.4C22.3882 9.59999 24 11.2118 24 13.2V15.6C24 17.5881 22.3882 19.2 20.4 19.2H18C16.0118 19.2 14.4 17.5881 14.4 15.6L1.2 15.6ZM20.4 12H18C17.3846 12 16.8774 12.4633 16.808 13.06L16.8 13.2V15.6C16.8 16.2154 17.2633 16.7226 17.86 16.792L18 16.8H20.4C21.0154 16.8 21.5226 16.3367 21.592 15.74L21.6 15.6V13.2C21.6 12.5846 21.1367 12.0774 20.54 12.008L20.4 12ZM6 0C7.98816 0 9.6 1.61184 9.6 3.6H22.8C23.4627 3.6 24 4.13733 24 4.8C24 5.41539 23.5367 5.92258 22.94 5.99198L22.8 6.00001H9.6C9.6 7.98817 7.98816 9.60001 6 9.60001H3.6C1.61184 9.60001 0 7.98817 0 6.00001V3.60001C0 1.61185 1.61184 1.30286e-05 3.6 1.30286e-05L6 0ZM6 2.4H3.6C2.98461 2.4 2.47742 2.86327 2.40802 3.46005L2.39999 3.6V6C2.39999 6.61539 2.86326 7.12258 3.46003 7.19198L3.59999 7.20001H5.99999C6.61538 7.20001 7.12257 6.73674 7.19196 6.13997L7.2 6.00001V3.60001C7.2 2.98462 6.73673 2.47743 6.13995 2.40804L6 2.4Z" fill="#FBFBFB"/>
</svg>
