<svg width="6" height="18" viewBox="0 0 6 18" fill="none" xmlns="http://www.w3.org/2000/svg">
<path d="M4.02851 13.1645C3.77779 12.946 3.57261 12.4951 3.57261 12.1624V0.604697C3.57261 0.272153 3.3006 0.000137329 2.96805 0.000137329H2.19261C1.86007 0.000137329 1.58805 0.272146 1.58805 0.604697L1.58792 12.1621C1.58792 12.4949 1.37457 12.9358 1.11395 13.1423C1.11395 13.1423 -6.10352e-05 14.0245 -6.10352e-05 14.8586C-6.10352e-05 16.1463 1.13312 17.1903 2.53091 17.1903C3.92847 17.1903 5.06151 16.1462 5.06151 14.8586C5.06151 14.0646 4.02851 13.1643 4.02851 13.1643L4.02851 13.1645Z" fill="white"/>
</svg>
